<svg width="23" height="25" viewBox="0 0 23 25" fill="none" xmlns="http://www.w3.org/2000/svg">
<path d="M21.5549 11.2871C22.0098 6.96589 22.4629 1.43277 20.103 1.0697C17.743 0.706621 16.3514 1.79585 15.2621 3.55071C14.8386 2.34046 14.5722 1.0697 11.813 1.0697C8.36387 1.0697 5.15614 8.65039 3.82513 11.6668C0.183071 19.9207 0.194928 23.2686 3.09938 23.2686C4.62699 23.2686 5.57989 22.6196 7.87932 20.1917C7.87932 21.644 8.30326 22.3701 9.42964 22.6801C10.2183 22.8972 11.812 22.8542 12.6973 21.8329C13.3759 21.0501 13.8088 20.6152 13.9904 20.3127C14.2929 20.9783 14.9565 23.2122 16.8956 23.1476C20.5262 23.0266 21.1919 14.7363 21.5549 11.2871Z" fill="#FCFDF8" stroke="#582AB9" stroke-width="1.5"/>
<line y1="-0.75" x2="7.04235" y2="-0.75" transform="matrix(-0.326514 0.945192 -0.945188 -0.326526 11.7734 8.14062)" stroke="#582AB9" stroke-width="1.5"/>
<line y1="-0.75" x2="7.04235" y2="-0.75" transform="matrix(-0.326514 0.945192 -0.945188 -0.326526 16.0078 8.14062)" stroke="#582AB9" stroke-width="1.5"/>
</svg>
