<svg width="151" height="162" viewBox="0 0 151 162" fill="none" xmlns="http://www.w3.org/2000/svg">
<path d="M123.695 0.00325301C114.791 0.00325301 106.865 3.76048 100.665 10.8911C100.398 10.5105 100.118 10.1331 99.8247 9.75904C96.4332 5.4553 90.0804 0.325301 79.0655 0.325301C69.6893 0.325301 61.8509 3.51 55.1071 10.0648C49.6306 15.3867 45.6397 22.114 41.4175 29.2348C40.9809 29.9733 40.5379 30.7149 40.0948 31.4631C35.5696 39.0492 27.3793 54.9987 19.2835 73.5278C12.7677 88.4461 4.36242 109.555 1.33911 125.407C0.166272 131.558 -0.231189 136.721 0.127177 141.187C0.573506 146.769 2.25783 151.359 5.13127 154.827C9.07656 159.586 14.8788 162 22.3785 162C32.3443 162 41.3556 158.519 48.435 151.935C48.5522 151.825 48.6728 151.714 48.7901 151.603C48.8031 151.62 48.8129 151.633 48.8259 151.649C52.6376 156.574 58.6484 159.072 66.6888 159.072C74.7293 159.072 81.3753 156.249 86.9105 150.868C87.4611 151.737 88.0572 152.563 88.7056 153.344C91.8429 157.143 97.6354 161.675 107.412 161.675C115.72 161.675 122.649 158.106 128.012 151.073C131.817 146.077 134.906 139.317 138.02 129.154C141.346 118.302 145.64 81.9271 149.781 44.2377C150.149 40.8936 150.465 38.0049 150.693 36.0141C151.283 30.8288 151.022 25.8777 149.915 21.3007C148.686 16.2195 146.487 11.88 143.373 8.39928C138.46 2.90494 131.657 0 123.702 0L123.695 0.00325301Z" fill="#FCFDF8"/>
<path d="M123.695 7.81048C138.356 7.81048 144.546 20.8225 142.917 35.1358C141.174 50.451 134.645 113.472 130.537 126.871C125.65 142.81 119.786 153.871 107.406 153.871C91.768 153.871 88.5101 138.256 90.7906 126.545C88.5101 137.931 81.3428 151.268 66.6823 151.268C52.0219 151.268 50.3929 141.509 54.3024 126.545C50.0672 142.16 39.3162 154.196 22.3752 154.196C8.69213 154.196 5.79262 143.783 9.01792 126.871C14.2305 99.5454 37.6872 50.7502 46.8093 35.4611C55.3254 21.1869 62.1213 8.13578 79.0623 8.13578C96.0032 8.13578 99.9127 24.0755 97.3064 34.8105C100.238 23.7502 107.732 7.81048 123.695 7.81048ZM123.695 0.00325301C114.791 0.00325301 106.865 3.76048 100.665 10.8911C100.398 10.5105 100.118 10.1331 99.8247 9.75904C96.4332 5.4553 90.0804 0.325301 79.0655 0.325301C69.6893 0.325301 61.8509 3.51 55.1071 10.0648C49.6306 15.3867 45.6397 22.114 41.4175 29.2348C40.9809 29.9733 40.5379 30.7149 40.0948 31.4631C35.5696 39.0492 27.3793 54.9987 19.2835 73.5278C12.7677 88.4461 4.36242 109.555 1.33911 125.407C0.166272 131.558 -0.231189 136.721 0.127177 141.187C0.573506 146.769 2.25783 151.359 5.13127 154.827C9.07656 159.586 14.8788 162 22.3785 162C32.3443 162 41.3556 158.519 48.435 151.935C48.5522 151.825 48.6728 151.714 48.7901 151.603C48.8031 151.62 48.8129 151.633 48.8259 151.649C52.6376 156.574 58.6484 159.072 66.6888 159.072C74.7293 159.072 81.3753 156.249 86.9105 150.868C87.4611 151.737 88.0572 152.563 88.7056 153.344C91.8429 157.143 97.6354 161.675 107.412 161.675C115.72 161.675 122.649 158.106 128.012 151.073C131.817 146.077 134.906 139.317 138.02 129.154C141.346 118.302 145.64 81.9271 149.781 44.2377C150.149 40.8936 150.465 38.0049 150.693 36.0141C151.283 30.8288 151.022 25.8777 149.915 21.3007C148.686 16.2195 146.487 11.88 143.373 8.39928C138.46 2.90494 131.657 0 123.702 0L123.695 0.00325301Z" fill="#582AB9"/>
<path d="M96.105 104.371C95.7141 104.371 95.3166 104.312 94.9257 104.188C92.8667 103.538 91.7265 101.345 92.378 99.2893L104.419 61.2844C105.071 59.2285 107.267 58.0899 109.326 58.7405C111.384 59.3911 112.525 61.5837 111.873 63.6396L99.8321 101.645C99.3043 103.307 97.7666 104.371 96.105 104.371Z" fill="#582AB9"/>
<path d="M59.6157 104.371C59.1824 104.371 58.7459 104.299 58.3158 104.146C56.2797 103.427 55.2111 101.199 55.9311 99.1658L69.2297 61.5382C69.9497 59.505 72.1813 58.4381 74.2175 59.157C76.2537 59.8759 77.3223 62.1042 76.6023 64.1373L63.3036 101.765C62.7368 103.369 61.2284 104.371 59.6157 104.371Z" fill="#582AB9"/>
</svg>
